<?xml version="1.0" encoding="utf-8"?>
<!-- Generator: Adobe Illustrator 27.5.0, SVG Export Plug-In . SVG Version: 6.00 Build 0)  -->
<svg version="1.1" xmlns="http://www.w3.org/2000/svg" xmlns:xlink="http://www.w3.org/1999/xlink" x="0px" y="0px"
	 viewBox="0 0 750 500" style="enable-background:new 0 0 750 500;" xml:space="preserve">
<g id="BACKGROUND">
	<rect style="fill:#FFFFFF;" width="750" height="500"/>
</g>
<g id="OBJECTS">
	<path style="fill:#9EE2FA;" d="M606.478,353.411c6.45-21.965,9.926-45.203,9.926-69.255c0-135.533-109.871-245.404-245.404-245.404
		S125.596,148.623,125.596,284.156c0,24.052,3.476,47.29,9.926,69.255H606.478z"/>
	<path style="opacity:0.1;" d="M639.792,441.934H106.154c-4.865,0-8.846-3.981-8.846-8.846l0,0c0-4.865,3.981-8.846,8.846-8.846
		h533.638c4.865,0,8.846,3.981,8.846,8.846l0,0C648.638,437.953,644.657,441.934,639.792,441.934z"/>
	<g>
		<g>
			<path style="fill:#88B2BA;" d="M477.918,360.595H98.453V160.275c0-9.653,7.825-17.478,17.478-17.478H460.44
				c9.653,0,17.478,7.825,17.478,17.478V360.595z"/>
			<path style="fill:#FF5B4E;" d="M90.824,314.71c0,9.203,2.479,16.663,7.381,16.663c4.903,0,8.877-7.46,8.877-16.663
				c0-9.203-3.974-16.663-8.877-16.663C93.303,298.047,90.824,305.508,90.824,314.71z"/>
			<path style="fill:#FFD666;" d="M93.648,282.303c0,5.557,1.289,10.062,4.25,10.062c2.96,0,5.36-4.505,5.36-10.062
				c0-5.557-2.4-10.062-5.36-10.062C94.937,272.242,93.648,276.746,93.648,282.303z"/>
			<path style="fill:#FF5B4E;" d="M95.895,168.046c0,2.959,0.686,5.358,2.263,5.358c1.576,0,2.854-2.399,2.854-5.358
				c0-2.959-1.278-5.358-2.854-5.358C96.581,162.688,95.895,165.087,95.895,168.046z"/>
			<path style="fill:#FFD666;" d="M95.895,185.212c0,2.959,0.686,5.357,2.263,5.357c1.576,0,2.854-2.399,2.854-5.357
				c0-2.959-1.278-5.358-2.854-5.358C96.581,179.855,95.895,182.253,95.895,185.212z"/>
			<path style="fill:#C3DBE0;" d="M442.999,316.966H133.372c-7.455,0-13.499-6.044-13.499-13.499V175.76
				c0-8.272,6.706-14.978,14.978-14.978H441.52c8.272,0,14.978,6.706,14.978,14.978v127.708
				C456.498,310.922,450.454,316.966,442.999,316.966z"/>
			<g>
				<polygon style="fill:#A9CDD4;" points="220.52,241.394 184.706,220.717 184.706,231.092 141.74,231.092 151.344,241.394 
					141.74,251.696 184.706,251.696 184.706,262.071 				"/>
				<polygon style="fill:#A9CDD4;" points="293.702,200.393 252.074,176.359 252.074,188.419 202.132,188.419 213.295,200.393 
					202.132,212.368 252.074,212.368 252.074,224.428 				"/>
				<polygon style="fill:#A9CDD4;" points="426.884,245.845 360.528,207.535 360.528,226.758 280.921,226.758 298.715,245.845 
					280.921,264.932 360.528,264.932 360.528,284.156 				"/>
			</g>
			
				<text transform="matrix(1 0 0 1 140.0827 316.9661)" style="fill:#88B2BA; font-family:'BebasNeue-Regular'; font-size:54.5535px;">DELIVERY</text>
			<path style="fill:#09252B;" d="M483.686,386.773H127.405c-15.99,0-28.952-12.962-28.952-28.952l0,0h385.233V386.773z"/>
			<path style="fill:#0E3640;" d="M477.918,360.595H103.184c-6.641,0-12.025-5.384-12.025-12.025v-0.59
				c0-6.641,5.384-12.025,12.025-12.025h374.734V360.595z"/>
			<g>
				<path style="fill:#245E6B;" d="M452.732,390.539H228.055c-2.08,0-3.765-1.686-3.765-3.766l0,0c0-2.08,1.686-3.765,3.765-3.765
					h224.677c2.08,0,3.766,1.686,3.766,3.765l0,0C456.498,388.853,454.812,390.539,452.732,390.539z"/>
				<path style="fill:#245E6B;" d="M452.732,375.566H228.055c-2.08,0-3.765-1.686-3.765-3.765l0,0c0-2.08,1.686-3.765,3.765-3.765
					h224.677c2.08,0,3.766,1.686,3.766,3.765l0,0C456.498,373.881,454.812,375.566,452.732,375.566z"/>
			</g>
			<g>
				
					<ellipse transform="matrix(0.9269 -0.3754 0.3754 0.9269 -135.5211 89.8357)" style="fill:#245E6B;" cx="162.801" cy="392.73" rx="41.357" ry="41.357"/>
				<circle style="fill:#88B2BA;" cx="162.801" cy="392.73" r="28.548"/>
				<g>
					<path style="fill:#C3DBE0;" d="M164.428,417.3c-0.868,0-1.597-0.678-1.648-1.556c-0.054-0.911,0.641-1.694,1.553-1.746
						c0.915-0.085,1.743,0.593,1.822,1.502c0.077,0.91-0.563,1.708-1.472,1.785l-0.156,0.012
						C164.492,417.299,164.46,417.3,164.428,417.3z M157.715,416.791c-0.125,0-0.252-0.014-0.38-0.044l-0.065-0.015
						c-0.894-0.184-1.47-1.058-1.285-1.952c0.184-0.894,1.057-1.471,1.952-1.285l0.155,0.034c0.889,0.209,1.439,1.099,1.23,1.988
						C159.144,416.278,158.465,416.791,157.715,416.791z M171.108,415.808c-0.676,0-1.31-0.416-1.554-1.088
						c-0.311-0.858,0.131-1.807,0.989-2.119c0.848-0.341,1.835,0.056,2.177,0.901c0.343,0.846-0.04,1.8-0.886,2.143l-0.161,0.064
						C171.487,415.777,171.295,415.808,171.108,415.808z M151.341,414.298c-0.276,0-0.556-0.069-0.813-0.215
						c-0.005-0.002-0.047-0.027-0.052-0.029c-0.783-0.454-1.086-1.471-0.641-2.259c0.444-0.79,1.409-1.089,2.205-0.655
						c0.006,0.004,0.111,0.064,0.117,0.068c0.794,0.45,1.074,1.458,0.623,2.252C152.476,413.997,151.917,414.298,151.341,414.298z
						 M177.048,412.406c-0.503,0-0.999-0.228-1.324-0.661c-0.548-0.731-0.399-1.767,0.33-2.314c0.708-0.577,1.766-0.486,2.344,0.223
						c0.577,0.708,0.488,1.735-0.219,2.311l-0.14,0.111C177.741,412.299,177.393,412.406,177.048,412.406z M145.927,410.013
						c-0.423,0-0.84-0.168-1.157-0.51l-0.077-0.085c-0.619-0.672-0.575-1.717,0.097-2.335c0.671-0.618,1.719-0.576,2.335,0.097
						c0.62,0.67,0.616,1.757-0.056,2.376C146.741,409.859,146.332,410.013,145.927,410.013z M181.725,407.411
						c-0.311,0-0.625-0.087-0.905-0.27c-0.763-0.5-0.977-1.525-0.477-2.289l0.086-0.126c0.518-0.752,1.547-0.942,2.298-0.422
						c0.751,0.518,0.94,1.547,0.422,2.298l-0.041,0.061C182.792,407.149,182.263,407.411,181.725,407.411z M142.069,404.357
						c-0.596,0-1.16-0.322-1.441-0.901l-0.057-0.12c-0.387-0.826-0.031-1.811,0.795-2.198c0.829-0.386,1.812-0.03,2.198,0.795
						c0.397,0.822,0.073,1.852-0.748,2.249C142.573,404.299,142.318,404.357,142.069,404.357z M184.727,401.26
						c-0.168,0-0.34-0.026-0.509-0.081c-0.868-0.281-1.345-1.213-1.063-2.081c0.256-0.875,1.18-1.411,2.062-1.152
						c0.876,0.258,1.387,1.144,1.13,2.019l-0.047,0.152C186.074,400.815,185.425,401.26,184.727,401.26z M140.083,397.846
						c-0.805,0-1.509-0.586-1.63-1.408l-0.001-0.013c-0.131-0.894,0.471-1.777,1.363-1.921c0.904-0.145,1.726,0.406,1.884,1.296
						c0.002,0.016,0.021,0.13,0.023,0.146c0.132,0.903-0.492,1.749-1.395,1.881C140.246,397.84,140.164,397.846,140.083,397.846z
						 M185.774,394.496c-0.913,0-1.653-0.74-1.653-1.653v-0.113c0-0.912,0.74-1.7,1.653-1.7c0.912,0,1.653,0.692,1.653,1.604v0.209
						C187.427,393.755,186.687,394.496,185.774,394.496z M140.069,390.954c-0.073,0-0.146-0.004-0.221-0.015
						c-0.904-0.129-1.54-0.914-1.411-1.817l0.017-0.118c0.133-0.904,0.973-1.532,1.876-1.396c0.904,0.133,1.528,0.973,1.396,1.875
						C141.608,390.313,140.886,390.954,140.069,390.954z M184.766,387.63c-0.698,0-1.346-0.444-1.572-1.144l-0.043-0.138
						c-0.265-0.873,0.229-1.796,1.103-2.061c0.866-0.266,1.796,0.228,2.061,1.103l0.024,0.077c0.282,0.868-0.195,1.8-1.063,2.081
						C185.106,387.605,184.934,387.63,184.766,387.63z M142.065,384.415c-0.227,0-0.456-0.048-0.673-0.15
						c-0.827-0.387-1.203-1.33-0.816-2.156l0.057-0.121c0.399-0.823,1.387-1.164,2.208-0.768c0.822,0.398,1.165,1.386,0.768,2.208
						C143.324,384.039,142.704,384.415,142.065,384.415z M181.799,381.463c-0.529,0-1.049-0.254-1.369-0.725
						c-0.519-0.751-0.357-1.822,0.394-2.339c0.75-0.518,1.753-0.371,2.27,0.381l0.071,0.103c0.512,0.754,0.315,1.783-0.44,2.295
						C182.442,381.37,182.119,381.463,181.799,381.463z M145.921,378.8c-0.401,0-0.803-0.145-1.121-0.438
						c-0.67-0.62-0.712-1.666-0.094-2.336l0.075-0.081c0.618-0.673,1.666-0.715,2.335-0.097c0.671,0.618,0.716,1.664,0.097,2.335
						l-0.077,0.085C146.81,378.622,146.365,378.8,145.921,378.8z M177.14,376.439c-0.342,0-0.688-0.107-0.984-0.328l-0.14-0.111
						c-0.708-0.577-0.815-1.618-0.238-2.325c0.577-0.708,1.617-0.815,2.325-0.238l-1.044,1.282l1.081-1.251
						c0.721,0.553,0.866,1.59,0.316,2.316C178.132,376.211,177.639,376.439,177.14,376.439z M151.26,374.516
						c-0.561,0-1.108-0.286-1.418-0.803c-0.47-0.782-0.216-1.798,0.567-2.267c0.005-0.003,0.06-0.035,0.066-0.039
						c0.787-0.456,1.817-0.211,2.279,0.571c0.464,0.782,0.232,1.778-0.548,2.245l-0.097,0.057
						C151.843,374.44,151.55,374.516,151.26,374.516z M171.228,373.005c-0.193,0-0.389-0.033-0.58-0.105l-0.131-0.051
						c-0.849-0.335-1.267-1.294-0.932-2.143c0.335-0.85,1.297-1.265,2.144-0.932l0.08,0.031c0.855,0.321,1.288,1.273,0.967,2.127
						C172.527,372.596,171.898,373.005,171.228,373.005z M157.68,371.983c-0.755,0-1.456-0.508-1.635-1.268
						c-0.209-0.889,0.309-1.771,1.198-1.98l0.155-0.035c0.893-0.19,1.769,0.391,1.952,1.285c0.185,0.894-0.391,1.768-1.285,1.952
						C157.936,371.969,157.807,371.983,157.68,371.983z M164.557,371.475c-0.032,0-0.066-0.001-0.098-0.003
						c-0.911-0.053-1.663-0.838-1.609-1.749c0.053-0.913,0.798-1.609,1.688-1.558c0.008,0,0.074,0.004,0.083,0.005
						c0.906,0.065,1.616,0.851,1.557,1.758C166.122,370.801,165.42,371.475,164.557,371.475z"/>
				</g>
				<circle style="fill:#C3DBE0;" cx="162.801" cy="392.73" r="16.952"/>
			</g>
			<ellipse style="fill:#FFD666;" cx="477.918" cy="163.261" rx="3.966" ry="7.444"/>
		</g>
		<g>
			<path style="fill:#B84238;" d="M566.744,176.359h-88.826v203.779c0,6.959,5.74,12.6,12.82,12.6h147.695
				c11.091,0,20.082-8.837,20.082-19.737V258.761c0-8.695-3.831-16.964-10.504-22.672l-61.19-52.345
				C581.255,178.982,574.124,176.359,566.744,176.359z"/>
			<path style="fill:#E8FAFC;" d="M664.896,351.373c0,9.203-1.479,16.663-6.381,16.663c-4.903,0-8.877-7.46-8.877-16.663
				c0-9.203,3.974-16.663,8.877-16.663C663.417,334.71,664.896,342.17,664.896,351.373z"/>
			<path style="fill:#FFD666;" d="M662.072,316.966c0,5.557-1.289,10.062-4.25,10.062c-2.96,0-5.36-4.505-5.36-10.062
				c0-5.557,2.4-10.062,5.36-10.062C660.783,306.904,662.072,311.409,662.072,316.966z"/>
			<path style="fill:#FF5B4E;" d="M497.887,237.83v142.017h33.079c7.123-22.671,23.296-38.223,50.87-38.223
				c24.626,0,41.357,14.414,51.471,27.344l0.444-0.244V253.931L497.887,237.83z"/>
			<path style="fill:#0E3640;" d="M538.756,281.719H512.25c-1.822,0-3.313-1.491-3.313-3.313l0,0c0-1.822,1.491-3.313,3.313-3.313
				h26.506c1.822,0,3.313,1.491,3.313,3.313l0,0C542.069,280.228,540.578,281.719,538.756,281.719z"/>
			<path style="fill:#0E3640;" d="M532.346,384.415h-34.303c-2.513,0-4.569-2.056-4.569-4.568l0,0c0-2.513,2.056-4.569,4.569-4.569
				h34.303c2.513,0,4.568,2.056,4.568,4.569l0,0C536.915,382.359,534.859,384.415,532.346,384.415z"/>
			<path style="fill:#9EE2FA;" d="M629.579,257.511c3.553,0,5.478-4.113,3.159-6.762c-0.796-0.909-1.643-1.769-2.539-2.574
				l-53.014-47.615c-4.692-4.214-10.518-6.527-16.42-6.527h-57.049c-3.225,0-5.838,2.573-5.838,5.747l0.012,51.987
				c0.001,3.173,2.614,5.744,5.837,5.744H629.579z"/>
			<g style="opacity:0.2;">
				<path style="fill:#FFFFFF;" d="M510.176,200.218c-2.675,0-4.843,2.072-4.843,4.627l0.01,41.856c0,1.219,0.504,2.319,1.31,3.145
					l49.627-49.627H510.176z"/>
				<path style="fill:#FFFFFF;" d="M590.492,222.355l-19.367-16.882c-1.278-1.114-2.665-2.045-4.115-2.817l-48.669,48.669h43.18
					L590.492,222.355z"/>
				<path style="fill:#FFFFFF;" d="M617.211,245.881c-0.66-0.732-1.363-1.424-2.106-2.072l-14.589-12.717l-20.233,20.233h34.308
					C617.539,251.325,619.135,248.014,617.211,245.881z"/>
			</g>
			<g>
				
					<ellipse transform="matrix(0.9277 -0.3732 0.3732 0.9277 -104.5315 245.5229)" style="fill:#245E6B;" cx="581.836" cy="392.73" rx="41.357" ry="41.357"/>
				<circle style="fill:#88B2BA;" cx="581.836" cy="392.73" r="28.548"/>
				<g>
					<path style="fill:#C3DBE0;" d="M583.462,417.3c-0.868,0-1.597-0.678-1.648-1.556c-0.054-0.911,0.641-1.694,1.553-1.746
						c0.915-0.085,1.743,0.593,1.822,1.502c0.077,0.91-0.563,1.708-1.472,1.785l-0.156,0.012
						C583.527,417.299,583.495,417.3,583.462,417.3z M576.75,416.791c-0.125,0-0.252-0.014-0.38-0.044l-0.065-0.015
						c-0.894-0.184-1.47-1.058-1.285-1.952c0.184-0.894,1.057-1.471,1.952-1.285l0.155,0.034c0.889,0.209,1.439,1.099,1.23,1.988
						C578.179,416.278,577.5,416.791,576.75,416.791z M590.142,415.808c-0.676,0-1.31-0.416-1.554-1.088
						c-0.311-0.858,0.131-1.807,0.989-2.119c0.848-0.341,1.835,0.056,2.177,0.901c0.343,0.846-0.04,1.8-0.886,2.143l-0.161,0.064
						C590.521,415.777,590.329,415.808,590.142,415.808z M570.375,414.298c-0.276,0-0.556-0.069-0.814-0.215
						c-0.005-0.002-0.047-0.027-0.052-0.029c-0.783-0.454-1.086-1.471-0.641-2.259c0.444-0.79,1.409-1.089,2.205-0.655
						c0.006,0.004,0.111,0.064,0.117,0.068c0.794,0.45,1.074,1.458,0.623,2.252C571.51,413.997,570.951,414.298,570.375,414.298z
						 M596.082,412.406c-0.503,0-0.999-0.228-1.324-0.661c-0.548-0.731-0.399-1.767,0.33-2.314c0.708-0.577,1.766-0.486,2.344,0.223
						c0.577,0.708,0.489,1.735-0.219,2.311l-0.14,0.111C596.775,412.299,596.427,412.406,596.082,412.406z M564.962,410.013
						c-0.423,0-0.84-0.168-1.157-0.51l-0.078-0.085c-0.619-0.672-0.575-1.717,0.097-2.335c0.672-0.618,1.719-0.576,2.335,0.097
						c0.62,0.67,0.615,1.757-0.056,2.376C565.775,409.859,565.366,410.013,564.962,410.013z M600.76,407.411
						c-0.311,0-0.625-0.087-0.905-0.27c-0.763-0.5-0.977-1.525-0.477-2.289l0.086-0.126c0.518-0.752,1.547-0.942,2.298-0.422
						c0.751,0.518,0.94,1.547,0.422,2.298l-0.041,0.061C601.826,407.149,601.298,407.411,600.76,407.411z M561.103,404.357
						c-0.596,0-1.16-0.322-1.441-0.901l-0.057-0.12c-0.387-0.826-0.031-1.811,0.795-2.198c0.829-0.386,1.812-0.03,2.198,0.795
						c0.397,0.822,0.073,1.852-0.748,2.249C561.608,404.299,561.353,404.357,561.103,404.357z M603.762,401.26
						c-0.168,0-0.34-0.026-0.509-0.081c-0.868-0.281-1.345-1.213-1.063-2.081c0.256-0.875,1.18-1.411,2.062-1.152
						c0.876,0.258,1.387,1.144,1.13,2.019l-0.047,0.152C605.108,400.815,604.459,401.26,603.762,401.26z M559.118,397.846
						c-0.805,0-1.509-0.586-1.63-1.408l-0.001-0.013c-0.131-0.894,0.471-1.777,1.363-1.921c0.904-0.145,1.726,0.406,1.884,1.296
						c0.002,0.016,0.021,0.13,0.023,0.146c0.132,0.903-0.492,1.749-1.394,1.881C559.28,397.84,559.198,397.846,559.118,397.846z
						 M604.809,394.496c-0.912,0-1.653-0.74-1.653-1.653v-0.113c0-0.912,0.74-1.7,1.653-1.7c0.913,0,1.653,0.692,1.653,1.604v0.209
						C606.462,393.755,605.721,394.496,604.809,394.496z M559.104,390.954c-0.073,0-0.146-0.004-0.221-0.015
						c-0.904-0.129-1.54-0.914-1.411-1.817l0.017-0.118c0.134-0.904,0.973-1.532,1.876-1.396c0.904,0.133,1.528,0.973,1.396,1.875
						C560.643,390.313,559.92,390.954,559.104,390.954z M603.8,387.63c-0.698,0-1.346-0.444-1.572-1.144l-0.043-0.138
						c-0.265-0.873,0.229-1.796,1.103-2.061c0.866-0.266,1.796,0.228,2.061,1.103l0.024,0.077c0.282,0.868-0.195,1.8-1.063,2.081
						C604.141,387.605,603.968,387.63,603.8,387.63z M561.1,384.415c-0.227,0-0.456-0.048-0.673-0.15
						c-0.827-0.387-1.203-1.33-0.816-2.156l0.057-0.121c0.399-0.823,1.387-1.164,2.208-0.768c0.822,0.398,1.165,1.386,0.768,2.208
						C562.359,384.039,561.738,384.415,561.1,384.415z M600.834,381.463c-0.529,0-1.049-0.254-1.369-0.725
						c-0.519-0.751-0.357-1.822,0.394-2.339c0.75-0.518,1.753-0.371,2.27,0.381l0.071,0.103c0.512,0.754,0.315,1.783-0.44,2.295
						C601.476,381.37,601.154,381.463,600.834,381.463z M564.955,378.8c-0.401,0-0.803-0.145-1.121-0.438
						c-0.67-0.62-0.712-1.666-0.094-2.336l0.075-0.081c0.618-0.673,1.666-0.715,2.335-0.097c0.672,0.618,0.716,1.664,0.097,2.335
						l-0.077,0.085C565.844,378.622,565.4,378.8,564.955,378.8z M596.175,376.439c-0.342,0-0.688-0.107-0.983-0.328l-0.14-0.111
						c-0.708-0.577-0.815-1.618-0.238-2.325c0.577-0.708,1.617-0.815,2.325-0.238l-1.044,1.282l1.081-1.251
						c0.721,0.553,0.866,1.59,0.316,2.316C597.167,376.211,596.674,376.439,596.175,376.439z M570.295,374.516
						c-0.561,0-1.108-0.286-1.418-0.803c-0.47-0.782-0.216-1.798,0.567-2.267c0.005-0.003,0.06-0.035,0.066-0.039
						c0.787-0.456,1.817-0.211,2.279,0.571c0.464,0.782,0.232,1.778-0.548,2.245l-0.097,0.057
						C570.878,374.44,570.584,374.516,570.295,374.516z M590.263,373.005c-0.193,0-0.39-0.033-0.58-0.105l-0.131-0.051
						c-0.849-0.335-1.267-1.294-0.932-2.143c0.335-0.85,1.297-1.265,2.143-0.932l0.08,0.031c0.855,0.321,1.288,1.273,0.967,2.127
						C591.562,372.596,590.932,373.005,590.263,373.005z M576.714,371.983c-0.755,0-1.456-0.508-1.635-1.268
						c-0.209-0.889,0.309-1.771,1.198-1.98l0.155-0.035c0.893-0.19,1.769,0.391,1.952,1.285c0.185,0.894-0.391,1.768-1.285,1.952
						C576.97,371.969,576.841,371.983,576.714,371.983z M583.591,371.475c-0.032,0-0.066-0.001-0.098-0.003
						c-0.911-0.053-1.663-0.838-1.609-1.749c0.053-0.913,0.798-1.609,1.688-1.558c0.008,0,0.074,0.004,0.083,0.005
						c0.906,0.065,1.616,0.851,1.557,1.758C585.156,370.801,584.454,371.475,583.591,371.475z"/>
				</g>
				<circle style="fill:#C3DBE0;" cx="581.836" cy="392.73" r="16.952"/>
			</g>
			<g>
				<path style="fill:#B84238;" d="M620.039,265.136L620.039,265.136c-0.72,0.321-1.572-0.005-1.893-0.725l-30.671-68.783
					c-0.321-0.72,0.005-1.572,0.725-1.893l0,0c0.72-0.321,1.572,0.005,1.893,0.725l30.672,68.783
					C621.086,263.964,620.759,264.815,620.039,265.136z"/>
				<path style="fill:#FF5B4E;" d="M611.899,246.882L611.899,246.882c-2.565,1.144-5.6-0.019-6.744-2.584l-14.667-32.892
					c-1.144-2.565,0.019-5.6,2.584-6.744l0,0c2.565-1.144,5.6,0.019,6.744,2.584l14.667,32.892
					C615.627,242.703,614.464,245.738,611.899,246.882z"/>
				<path style="fill:#E8FAFC;" d="M605.229,243.792l-0.471,0.21c-0.883,0.394-1.927-0.007-2.321-0.89l-12.884-28.893
					c-0.394-0.883,0.007-1.928,0.89-2.321l0.471-0.21c0.883-0.394,1.927,0.007,2.321,0.89l12.884,28.893
					C606.513,242.354,606.112,243.398,605.229,243.792z"/>
			</g>
		</g>
	</g>
</g>
</svg>
